<svg xmlns="http://www.w3.org/2000/svg" viewBox="0 0 64 64">
  <!-- 1. 배경: 인디고 색상의 둥근 하트 -->
  <path fill="#4F46E5" d="M32 58.5C32 58.5 6 39 6 22C6 11.5 14.5 5 22 5C27 5 30.5 8 32 10.5C33.5 8 37 5 42 5C49.5 5 58 11.5 58 22C58 39 32 58.5 32 58.5Z"/>
  
  <!-- 2. 전경: 하얀색 음표 -->
  <path fill="#FFFFFF" d="M43 18V36.5C43 39.5 40.5 42 37.5 42C34.5 42 32 39.5 32 36.5C32 33.5 34.5 31 37.5 31C38.5 31 39.5 31.3 40.2 31.8V23L27 26V40.5C27 43.5 24.5 46 21.5 46C18.5 46 16 43.5 16 40.5C16 37.5 18.5 35 21.5 35C22.5 35 23.5 35.3 24.2 35.8V18L43 14V18Z"/>
</svg>